<?xml version="1.0" encoding="utf-8"?>
<!-- Generator: Adobe Illustrator 16.0.0, SVG Export Plug-In . SVG Version: 6.00 Build 0)  -->
<!DOCTYPE svg PUBLIC "-//W3C//DTD SVG 1.1//EN" "http://www.w3.org/Graphics/SVG/1.1/DTD/svg11.dtd">
<svg version="1.1" id="Capa_1" xmlns="http://www.w3.org/2000/svg" xmlns:xlink="http://www.w3.org/1999/xlink" x="0px" y="0px"
	 width="163.307px" height="26.824px" viewBox="0 0 163.307 26.824" enable-background="new 0 0 163.307 26.824"
	 xml:space="preserve">
<g>
	<rect x="64.062" y="0.116" fill="#FFFFFF" width="2.469" height="10.58"/>
	<rect x="22.58" y="0.116" fill="#FFFFFF" width="2.467" height="10.58"/>
	<path fill="#FFFFFF" d="M3.663,8.592C3.405,8.485,3.187,8.327,3.007,8.12C2.826,7.916,2.689,7.665,2.596,7.373
		C2.501,7.081,2.454,6.748,2.454,6.375V0.116H0v6.265C0,7.03,0.103,7.627,0.312,8.168c0.209,0.541,0.509,1.009,0.902,1.4
		c0.391,0.392,0.868,0.698,1.429,0.915c0.563,0.217,1.197,0.326,1.904,0.326c0.701,0,1.333-0.109,1.894-0.326
		c0.563-0.217,1.039-0.523,1.43-0.915c0.392-0.391,0.695-0.859,0.905-1.4C8.985,7.627,9.09,7.03,9.09,6.381V0.116H6.637v6.265
		c0,0.375-0.049,0.708-0.144,1C6.4,7.674,6.264,7.922,6.084,8.125c-0.179,0.204-0.397,0.36-0.657,0.468S4.876,8.755,4.546,8.755
		C4.215,8.755,3.922,8.7,3.663,8.592"/>
	<polygon fill="#FFFFFF" points="34.132,0.116 31.388,7.761 28.625,0.116 28.625,0.116 26.027,0.116 30.267,10.696 32.49,10.696 
		36.729,0.116 	"/>
	<polygon fill="#FFFFFF" points="18.019,5.003 12.987,0.116 11.156,0.116 11.152,0.116 11.152,10.696 13.52,10.696 13.519,3.855 
		18.019,8.139 18.019,10.694 18.148,10.696 20.387,10.696 20.387,0.116 18.019,0.116 	"/>
	<path fill="#FFFFFF" d="M51.993,10.696h2.842l-2.79-4.563c0.225-0.108,0.437-0.225,0.623-0.369
		c0.264-0.204,0.484-0.434,0.664-0.693c0.18-0.259,0.315-0.542,0.408-0.845c0.091-0.305,0.137-0.629,0.137-0.974
		c0-0.45-0.077-0.866-0.232-1.249C53.49,1.623,53.24,1.29,52.899,1.01c-0.342-0.281-0.781-0.499-1.322-0.657
		c-0.538-0.157-1.192-0.236-1.957-0.236h-3.444v10.58h2.458V6.781h1.12L51.993,10.696z M51.378,4.083
		c-0.068,0.202-0.176,0.376-0.326,0.528c-0.15,0.15-0.344,0.266-0.577,0.352c-0.236,0.085-0.52,0.127-0.854,0.127h-0.986V1.954
		h0.986c0.634,0,1.103,0.131,1.407,0.392c0.3,0.263,0.454,0.625,0.454,1.089C51.481,3.667,51.447,3.884,51.378,4.083z"/>
	<path fill="#FFFFFF" d="M85.313,0.116H82.8l-4.093,10.58h2.534l0.806-2.374h4.021l0.805,2.374h2.535L85.313,0.116z M82.612,6.65
		l1.448-4.284L85.51,6.65H82.612z"/>
	<path fill="#FFFFFF" d="M62.271,6.176c-0.139-0.313-0.314-0.578-0.535-0.796c-0.22-0.219-0.471-0.396-0.755-0.538
		c-0.282-0.139-0.573-0.263-0.868-0.367c-0.295-0.103-0.584-0.197-0.868-0.282c-0.284-0.085-0.535-0.178-0.755-0.279
		c-0.22-0.103-0.398-0.224-0.535-0.364c-0.136-0.14-0.203-0.318-0.203-0.53c0-0.334,0.111-0.598,0.338-0.795
		c0.225-0.196,0.566-0.293,1.027-0.293c0,0,1.322-0.029,2.296,0.901l0.913-1.707c-0.188-0.175-0.403-0.33-0.643-0.468
		S61.188,0.4,60.913,0.3c-0.277-0.098-0.567-0.173-0.875-0.224C59.73,0.025,59.414,0,59.09,0c-0.581,0-1.098,0.086-1.546,0.264
		c-0.452,0.178-0.83,0.413-1.14,0.708c-0.31,0.295-0.546,0.633-0.705,1.009c-0.16,0.378-0.241,0.765-0.241,1.163
		c0,0.493,0.068,0.908,0.206,1.244c0.135,0.338,0.313,0.617,0.533,0.843c0.219,0.225,0.47,0.406,0.752,0.543
		c0.28,0.14,0.569,0.254,0.864,0.351c0.293,0.093,0.583,0.18,0.864,0.256c0.28,0.079,0.53,0.167,0.75,0.27
		c0.22,0.103,0.398,0.229,0.535,0.385c0.136,0.156,0.202,0.355,0.202,0.602c0,0.427-0.122,0.739-0.37,0.935
		c-0.246,0.195-0.592,0.295-1.037,0.295c0,0-0.806,0.082-2.106-0.799l0,0c-0.163-0.109-0.331-0.229-0.509-0.372l-1.089,1.722
		c0.207,0.207,0.453,0.396,0.735,0.566c0.28,0.168,0.579,0.314,0.898,0.438c0.321,0.124,0.651,0.219,0.991,0.287
		c0.341,0.068,0.675,0.101,1.006,0.101c0.602,0,1.137-0.09,1.609-0.271c0.471-0.183,0.868-0.432,1.189-0.749
		c0.321-0.318,0.567-0.688,0.737-1.116c0.17-0.425,0.254-0.882,0.254-1.371C62.473,6.864,62.405,6.487,62.271,6.176z"/>
	<path fill="#FFFFFF" d="M40.179,2.004v2.469h3.325v1.815h-3.325v2.52h4.732l-0.391,1.888h-6.81V0.116h7.005l-0.392,1.888H40.179z"
		/>
	<path fill="#FFFFFF" d="M78.23,5.401c0,0.767-0.132,1.471-0.395,2.117c-0.264,0.646-0.634,1.207-1.114,1.676
		c-0.479,0.473-1.057,0.842-1.733,1.104c-0.675,0.266-1.423,0.398-2.246,0.398h-3.928V0.116h3.928c0.822,0,1.57,0.133,2.246,0.399
		c0.677,0.266,1.254,0.634,1.733,1.104s0.85,1.029,1.114,1.673C78.099,3.94,78.23,4.643,78.23,5.401z M75.719,5.401
		c0-0.521-0.067-0.993-0.202-1.414c-0.137-0.422-0.331-0.778-0.585-1.073c-0.254-0.292-0.564-0.517-0.933-0.673
		c-0.369-0.158-0.786-0.236-1.256-0.236h-1.459v6.803h1.459c0.47,0,0.887-0.08,1.256-0.236c0.369-0.157,0.678-0.383,0.933-0.675
		s0.449-0.649,0.585-1.071C75.652,6.404,75.719,5.929,75.719,5.401z"/>
	<path fill="#FFFFFF" d="M99.896,5.401c0,0.767-0.132,1.471-0.395,2.117c-0.264,0.646-0.636,1.207-1.115,1.676
		c-0.478,0.473-1.055,0.842-1.731,1.104c-0.675,0.266-1.424,0.398-2.245,0.398H90.48V0.116h3.929c0.821,0,1.57,0.133,2.245,0.399
		c0.677,0.266,1.254,0.634,1.731,1.104c0.479,0.47,0.852,1.029,1.115,1.673C99.764,3.94,99.896,4.643,99.896,5.401z M97.383,5.401
		c0-0.521-0.067-0.993-0.202-1.414c-0.135-0.422-0.329-0.778-0.586-1.073c-0.254-0.292-0.563-0.517-0.932-0.673
		c-0.367-0.158-0.787-0.236-1.254-0.236h-1.461v6.803h1.461c0.467,0,0.887-0.08,1.254-0.236c0.368-0.157,0.678-0.383,0.932-0.675
		c0.257-0.292,0.451-0.649,0.586-1.071C97.315,6.404,97.383,5.929,97.383,5.401z"/>
</g>
<g>
	<path fill="#FFFFFF" d="M134.394,19.287c-0.264-0.657-0.635-1.23-1.114-1.715c-0.479-0.482-1.057-0.863-1.729-1.143
		c-0.678-0.277-1.428-0.416-2.25-0.416c-0.821,0-1.573,0.137-2.25,0.413c-0.676,0.275-1.257,0.657-1.738,1.142
		c-0.48,0.482-0.855,1.053-1.119,1.712s-0.395,1.37-0.395,2.135s0.131,1.476,0.395,2.136c0.264,0.656,0.639,1.229,1.119,1.715
		c0.481,0.486,1.063,0.869,1.738,1.145c0.677,0.275,1.429,0.414,2.25,0.414c0.822,0,1.572-0.139,2.25-0.414
		c0.673-0.275,1.25-0.658,1.729-1.145s0.851-1.059,1.114-1.715c0.264-0.66,0.396-1.371,0.396-2.136
		C134.789,20.654,134.657,19.945,134.394,19.287z M132.075,22.833c-0.137,0.418-0.33,0.772-0.585,1.063
		c-0.255,0.292-0.565,0.512-0.933,0.664c-0.369,0.153-0.787,0.23-1.258,0.23c-0.475,0-0.896-0.077-1.267-0.23
		c-0.37-0.152-0.683-0.372-0.937-0.664c-0.254-0.29-0.447-0.645-0.585-1.063c-0.136-0.42-0.202-0.891-0.202-1.419
		c0-0.523,0.066-0.993,0.202-1.412c0.138-0.419,0.331-0.774,0.585-1.063c0.254-0.292,0.566-0.516,0.937-0.668
		c0.37-0.155,0.792-0.234,1.267-0.234c0.471,0,0.889,0.079,1.258,0.234c0.367,0.152,0.678,0.376,0.933,0.668
		c0.255,0.289,0.448,0.645,0.585,1.063c0.135,0.419,0.201,0.889,0.201,1.412C132.276,21.943,132.21,22.414,132.075,22.833z"/>
	<rect x="110.758" y="16.128" fill="#FFFFFF" width="2.469" height="10.578"/>
	<path fill="#FFFFFF" d="M46.338,19.287c-0.263-0.657-0.635-1.23-1.114-1.715c-0.479-0.482-1.057-0.863-1.732-1.143
		c-0.675-0.277-1.424-0.416-2.247-0.416c-0.822,0-1.572,0.137-2.25,0.413c-0.677,0.275-1.257,0.657-1.738,1.142
		c-0.482,0.482-0.854,1.053-1.119,1.712c-0.263,0.659-0.396,1.37-0.396,2.135s0.133,1.476,0.396,2.136
		c0.264,0.656,0.636,1.229,1.119,1.715c0.481,0.486,1.062,0.869,1.738,1.145c0.678,0.275,1.429,0.414,2.25,0.414
		c0.823,0,1.572-0.139,2.247-0.414c0.675-0.275,1.252-0.658,1.732-1.145c0.479-0.486,0.851-1.059,1.114-1.715
		c0.264-0.66,0.396-1.371,0.396-2.136C46.734,20.654,46.602,19.945,46.338,19.287z M44.021,22.833
		c-0.137,0.418-0.333,0.772-0.585,1.063c-0.254,0.292-0.566,0.512-0.933,0.664c-0.369,0.153-0.788,0.23-1.257,0.23
		c-0.475,0-0.897-0.077-1.267-0.23c-0.37-0.152-0.682-0.372-0.936-0.664c-0.254-0.29-0.448-0.645-0.585-1.063
		c-0.135-0.42-0.202-0.891-0.202-1.419c0-0.523,0.067-0.993,0.202-1.412c0.137-0.419,0.331-0.774,0.585-1.063
		c0.254-0.292,0.566-0.516,0.936-0.668c0.37-0.155,0.792-0.234,1.267-0.234c0.47,0,0.889,0.079,1.257,0.234
		c0.367,0.152,0.678,0.376,0.933,0.668c0.253,0.289,0.448,0.645,0.585,1.063c0.134,0.419,0.202,0.889,0.202,1.412
		C44.223,21.943,44.154,22.414,44.021,22.833z"/>
	<rect x="31.691" y="16.128" fill="#FFFFFF" width="2.469" height="10.578"/>
	<polygon fill="#FFFFFF" points="55.195,21.017 50.163,16.128 48.331,16.128 48.326,16.128 48.326,26.707 50.696,26.707 
		50.695,19.867 55.195,24.151 55.195,26.707 55.326,26.707 57.565,26.707 57.565,16.128 55.195,16.128 	"/>
	<polygon fill="#FFFFFF" points="6.998,21.017 1.967,16.128 0.136,16.128 0.132,16.128 0.132,26.707 2.499,26.707 2.499,19.867 
		6.998,24.151 6.998,26.707 7.128,26.707 9.367,26.707 9.367,16.128 6.998,16.128 	"/>
	<path fill="#FFFFFF" d="M142.19,26.707h2.843l-2.788-4.562c0.225-0.108,0.436-0.226,0.621-0.368
		c0.264-0.204,0.486-0.434,0.664-0.693c0.179-0.26,0.314-0.541,0.407-0.847c0.091-0.304,0.137-0.63,0.137-0.972
		c0-0.45-0.077-0.865-0.231-1.249c-0.154-0.382-0.402-0.714-0.745-0.995c-0.341-0.28-0.781-0.5-1.321-0.656
		c-0.539-0.158-1.191-0.236-1.957-0.236h-3.439v10.578h2.453v-3.912h1.119L142.19,26.707z M141.577,20.095
		c-0.068,0.202-0.176,0.377-0.327,0.527c-0.149,0.149-0.341,0.267-0.577,0.354c-0.234,0.083-0.519,0.125-0.854,0.125h-0.986v-3.136
		h0.986c0.635,0,1.104,0.13,1.406,0.392c0.302,0.261,0.453,0.625,0.453,1.09C141.679,19.679,141.645,19.894,141.577,20.095z"/>
	<path fill="#FFFFFF" d="M65.152,16.128H62.64l-4.095,10.579h2.536l0.804-2.374h4.021l0.806,2.374h2.536L65.152,16.128z
		 M62.451,22.662l1.446-4.285l1.451,4.285H62.451z"/>
	<path fill="#FFFFFF" d="M16.953,16.128H14.44l-4.093,10.579h2.534l0.804-2.374h4.021l0.806,2.374h2.536L16.953,16.128z
		 M14.25,22.662l1.448-4.285l1.45,4.285H14.25z"/>
	<path fill="#FFFFFF" d="M151.466,16.128h-2.512l-4.094,10.579h2.535l0.805-2.374h4.021l0.804,2.374h2.536L151.466,16.128z
		 M148.766,22.662l1.446-4.285l1.45,4.285H148.766z"/>
	<path fill="#FFFFFF" d="M90.083,19.277v1.553h2.092v1.143h-2.092v1.586h2.977l-0.246,1.186H88.53v-6.654h4.406l-0.245,1.188H90.083
		z"/>
	<path fill="#FFFFFF" d="M29.21,23.812c-1.176,1.057-2.407,0.992-2.407,0.992s-0.036,0-0.051,0c-0.386,0-0.75-0.074-1.087-0.225
		c-0.339-0.15-0.636-0.369-0.89-0.657c-0.253-0.287-0.455-0.643-0.602-1.063c-0.148-0.42-0.222-0.901-0.222-1.444
		c0-0.538,0.067-1.017,0.201-1.434c0.132-0.419,0.321-0.771,0.566-1.06c0.245-0.287,0.533-0.508,0.871-0.658
		c0.337-0.149,0.709-0.227,1.114-0.227c0,0,1.311-0.06,2.449,0.99l1.197-1.605c-0.199-0.203-0.427-0.393-0.683-0.564
		c-0.256-0.176-0.538-0.324-0.843-0.447c-0.303-0.124-0.632-0.221-0.983-0.29c-0.351-0.07-0.724-0.108-1.121-0.108
		c-0.781,0-1.494,0.135-2.143,0.402c-0.647,0.266-1.207,0.637-1.67,1.117c-0.465,0.479-0.825,1.049-1.081,1.709
		c-0.258,0.661-0.385,1.385-0.385,2.175c0,0.774,0.119,1.491,0.355,2.152s0.576,1.233,1.019,1.714
		c0.444,0.48,0.983,0.859,1.62,1.132c0.636,0.272,1.356,0.411,2.161,0.411c0.874,0,1.634-0.143,2.276-0.426
		c0.641-0.284,1.174-0.703,1.6-1.26L29.21,23.812z"/>
	<path fill="#FFFFFF" d="M109.755,24.744l-0.391,1.963h-6.375V16.128h2.454v8.615H109.755z"/>
	<path fill="#FFFFFF" d="M98.323,23.511l-0.246,1.232h-4.01v-6.654h1.545v5.422H98.323z"/>
	<path fill="#FFFFFF" d="M76.991,24.744l-0.39,1.963h-6.375V16.128h2.455v8.615H76.991z"/>
	<path fill="#FFFFFF" d="M163.307,24.744l-0.392,1.963h-6.374V16.128h2.452v8.615H163.307z"/>
	<path fill="#FFFFFF" d="M123.022,18.074h-2.977v8.634h-2.453v-8.634h-3.071v-1.945h8.891L123.022,18.074z"/>
	<path fill="#FFFFFF" d="M87.554,21.415c0,0.482-0.084,0.925-0.25,1.332c-0.166,0.406-0.399,0.757-0.701,1.056
		c-0.302,0.297-0.666,0.527-1.09,0.694c-0.425,0.166-0.896,0.247-1.413,0.247h-2.471v-6.654H84.1c0.517,0,0.988,0.083,1.413,0.251
		c0.424,0.168,0.788,0.397,1.09,0.693c0.302,0.297,0.535,0.647,0.701,1.054C87.47,20.495,87.554,20.937,87.554,21.415z
		 M85.974,21.415c0-0.329-0.045-0.624-0.128-0.891c-0.087-0.266-0.208-0.489-0.37-0.673c-0.158-0.185-0.354-0.326-0.586-0.426
		c-0.23-0.098-0.495-0.148-0.79-0.148h-0.917v4.28H84.1c0.295,0,0.56-0.051,0.79-0.148c0.232-0.1,0.428-0.241,0.586-0.426
		c0.162-0.185,0.283-0.409,0.37-0.673C85.929,22.045,85.974,21.748,85.974,21.415z"/>
</g>
</svg>
